Coordinates
version=1
nRows=7
nColumns=46
inDegrees=yes

Units are S.I. units (second, meters, Newtons, ...)
Angles are in degrees.

endheader
time	pelvis_tilt	pelvis_list	pelvis_rotation	pelvis_tx	pelvis_ty	pelvis_tz	bb_angle	bb_tx	bb_ty	bb_tz	hip_flexion_r	hip_adduction_r	hip_rotation_r	knee_angle_r	knee_angle_r_beta	ankle_angle_r	subtalar_angle_r	mtp_angle_r	crank_angle_r	hip_flexion_l	hip_adduction_l	hip_rotation_l	knee_angle_l	knee_angle_l_beta	ankle_angle_l	subtalar_angle_l	mtp_angle_l	crank_angle_l	lumbar_extension	lumbar_bending	lumbar_rotation	arm_flex_r	arm_add_r	arm_rot_r	elbow_flex_r	pro_sup_r	wrist_flex_r	wrist_dev_r	arm_flex_l	arm_add_l	arm_rot_l	elbow_flex_l	pro_sup_l	wrist_flex_l	wrist_dev_l
      5.00500000	    -21.29014788	      6.40063092	     13.93469067	      0.33154597	      1.22682499	     -0.22190329	      0.00000000	      0.50000000	      0.00000000	      0.25000000	     36.71601729	    -11.30759393	      3.35591908	     59.39207137	      1.03658719	    -37.00997736	     -9.06025362	      0.00000000	      0.00000000	     57.80846309	      9.47748667	      2.80066765	     67.59108180	      1.17968692	     13.25672061	     -5.96447517	      0.00000000	      0.00000000	    -66.78918294	      5.58932775	     -5.99992206	     40.90228212	    -11.98924253	      4.77607475	     99.84035880	     51.15672886	      0.00000000	      0.00000000	     52.68814888	    -13.19434910	     19.89697200	     88.05687826	     55.89893311	      0.00000000	      0.00000000
      5.01000000	    -21.17500826	      5.41409907	     14.33783278	      0.33055696	      1.22625853	     -0.22078995	      0.00000000	      0.50000000	      0.00000000	      0.25000000	     37.69479381	    -10.35391256	      2.93149086	     61.59472613	      1.07503077	    -36.79767567	     -9.25550580	      0.00000000	      0.00000000	     56.96856863	      8.75717749	      3.54685694	     65.47125057	      1.14268889	     11.87108143	     -5.09994303	      0.00000000	      0.00000000	    -66.72408759	      6.35856208	     -5.67463333	     41.32941877	    -11.85803696	      5.09171966	     99.63911313	     51.15667483	      0.00000000	      0.00000000	     52.75305869	    -13.62345061	     19.71128551	     88.33100760	     55.91741398	      0.00000000	      0.00000000
      5.01500000	    -21.07657406	      4.70827439	     14.46455788	      0.33070836	      1.22584963	     -0.22052255	      0.00000000	      0.50000000	      0.00000000	      0.25000000	     38.62565481	     -9.76421083	      2.55501432	     63.75850865	      1.11279590	    -36.30392937	     -9.32207941	      0.00000000	      0.00000000	     55.89946002	      8.08918198	      4.00656404	     63.29744971	      1.10474891	     10.89451056	     -4.19320524	      0.00000000	      0.00000000	    -66.60720208	      7.12440016	     -7.25332374	     43.01470747	    -10.31177835	      7.54812647	     97.30957977	     51.07019633	      0.00000000	      0.00000000	     51.09882675	    -16.23518134	     18.07667688	     90.89516660	     56.11937515	      0.00000000	      0.00000000
      5.02000000	    -20.87341901	      4.62467634	     14.27701389	      0.33215917	      1.22632467	     -0.22101221	      0.00000000	      0.50000000	      0.00000000	      0.25000000	     39.26289400	     -9.71079320	      2.51725253	     65.85096519	      1.14931616	    -35.39577684	     -9.47706375	      0.00000000	      0.00000000	     54.21974448	      7.75097053	      3.90801060	     60.69290662	      1.05929105	      9.80317379	     -3.89916317	      0.00000000	      0.00000000	    -66.81502783	      7.13926666	     -7.31867923	     43.05341005	    -10.28813449	      7.56947126	     97.20244819	     51.04133087	      0.00000000	      0.00000000	     50.81811189	    -16.31023260	     17.78169223	     91.01434945	     56.04864826	      0.00000000	      0.00000000
      5.02500000	    -20.72866776	      3.93987843	     14.20384834	      0.33253558	      1.22565206	     -0.22047480	      0.00000000	      0.50000000	      0.00000000	      0.25000000	     40.12744758	     -9.02085987	      2.17632218	     68.06963271	      1.18803921	    -34.30632234	     -9.97756185	      0.00000000	      0.00000000	     52.96317416	      6.92123108	      4.06656089	     58.39291777	      1.01914867	      8.72376856	     -3.52487555	      0.00000000	      0.00000000	    -66.72935063	      7.44590529	     -6.89875617	     43.11980569	    -10.21243392	      7.65279232	     97.10868775	     51.03727974	      0.00000000	      0.00000000	     50.58575496	    -16.57017099	     17.63464280	     91.09881422	     56.04384197	      0.00000000	      0.00000000
      5.03000000	    -20.69276324	      3.65251560	     13.97082465	      0.33276044	      1.22454107	     -0.22006319	      0.00000000	      0.50000000	      0.00000000	      0.25000000	     41.21614461	     -8.71708088	      2.13659225	     70.53543740	      1.23107562	    -32.65478507	     -9.99464540	      0.00000000	      0.00000000	     51.66809174	      6.38914002	      4.05358745	     56.02232125	      0.97777396	      7.27640498	     -3.41588590	      0.00000000	      0.00000000	    -66.53856579	      7.46407101	     -7.43007355	     43.50087707	     -9.51766505	      8.33684360	     96.33784634	     51.00510049	      0.00000000	      0.00000000	     49.81677398	    -17.56837616	     16.94783415	     91.97782004	     56.09058232	      0.00000000	      0.00000000
      5.03500000	    -20.63699115	      2.99039414	     13.71327885	      0.33317030	      1.22327877	     -0.21950159	      0.00000000	      0.50000000	      0.00000000	      0.25000000	     42.23450399	     -8.01044980	      1.82983857	     72.80026047	      1.27060424	    -31.21027273	    -10.76084815	      0.00000000	      0.00000000	     50.42657677	      5.48031300	      4.18579905	     53.71249279	      0.93745985	      6.23719696	     -2.81640158	      0.00000000	      0.00000000	    -66.32944676	      7.60981543	     -7.02830972	     43.50371658	     -9.43226683	      8.54734184	     96.12302105	     50.99665840	      0.00000000	      0.00000000	     49.42240334	    -17.81660546	     16.77448138	     92.11797832	     56.09232330	      0.00000000	      0.00000000
